<mxfile host="app.diagrams.net" modified="2024-05-31T23:02:32.838Z" agent="Mozilla/5.0 (Windows NT 10.0; Win64; x64) AppleWebKit/537.36 (KHTML, like Gecko) Chrome/125.0.0.0 Safari/537.36" etag="Z7ptbhwYyIJJN3nim80G" version="24.4.13" type="device">
  <diagram id="bc47vRQSer-DN1HRI0ml" name="Page-1">
    <mxGraphModel dx="882" dy="578" grid="1" gridSize="10" guides="1" tooltips="1" connect="1" arrows="1" fold="1" page="1" pageScale="1" pageWidth="850" pageHeight="1100" math="0" shadow="0">
      <root>
        <mxCell id="0" />
        <mxCell id="1" parent="0" />
        <mxCell id="KnpztKNeLlRr5ZttYKnk-1" value="" style="swimlane;startSize=0;" vertex="1" parent="1">
          <mxGeometry x="240" y="40" width="480" height="360" as="geometry" />
        </mxCell>
        <mxCell id="KnpztKNeLlRr5ZttYKnk-9" style="edgeStyle=orthogonalEdgeStyle;rounded=0;orthogonalLoop=1;jettySize=auto;html=1;exitX=0.5;exitY=1;exitDx=0;exitDy=0;entryX=0.5;entryY=0;entryDx=0;entryDy=0;" edge="1" parent="KnpztKNeLlRr5ZttYKnk-1" source="KnpztKNeLlRr5ZttYKnk-2" target="KnpztKNeLlRr5ZttYKnk-3">
          <mxGeometry relative="1" as="geometry" />
        </mxCell>
        <mxCell id="KnpztKNeLlRr5ZttYKnk-10" style="edgeStyle=orthogonalEdgeStyle;rounded=0;orthogonalLoop=1;jettySize=auto;html=1;exitX=1;exitY=0.5;exitDx=0;exitDy=0;entryX=1;entryY=0.5;entryDx=0;entryDy=0;" edge="1" parent="KnpztKNeLlRr5ZttYKnk-1" source="KnpztKNeLlRr5ZttYKnk-2" target="KnpztKNeLlRr5ZttYKnk-4">
          <mxGeometry relative="1" as="geometry" />
        </mxCell>
        <mxCell id="KnpztKNeLlRr5ZttYKnk-11" style="edgeStyle=orthogonalEdgeStyle;rounded=0;orthogonalLoop=1;jettySize=auto;html=1;exitX=0;exitY=0.5;exitDx=0;exitDy=0;entryX=0.5;entryY=0;entryDx=0;entryDy=0;" edge="1" parent="KnpztKNeLlRr5ZttYKnk-1" source="KnpztKNeLlRr5ZttYKnk-2" target="KnpztKNeLlRr5ZttYKnk-7">
          <mxGeometry relative="1" as="geometry" />
        </mxCell>
        <mxCell id="KnpztKNeLlRr5ZttYKnk-2" value="Primary" style="rounded=1;whiteSpace=wrap;html=1;" vertex="1" parent="KnpztKNeLlRr5ZttYKnk-1">
          <mxGeometry x="360" y="40" width="80" height="40" as="geometry" />
        </mxCell>
        <mxCell id="KnpztKNeLlRr5ZttYKnk-12" style="edgeStyle=orthogonalEdgeStyle;rounded=0;orthogonalLoop=1;jettySize=auto;html=1;exitX=0;exitY=0.5;exitDx=0;exitDy=0;" edge="1" parent="KnpztKNeLlRr5ZttYKnk-1" source="KnpztKNeLlRr5ZttYKnk-3" target="KnpztKNeLlRr5ZttYKnk-7">
          <mxGeometry relative="1" as="geometry" />
        </mxCell>
        <mxCell id="KnpztKNeLlRr5ZttYKnk-3" value="Secondary" style="rounded=1;whiteSpace=wrap;html=1;" vertex="1" parent="KnpztKNeLlRr5ZttYKnk-1">
          <mxGeometry x="360" y="160" width="80" height="40" as="geometry" />
        </mxCell>
        <mxCell id="KnpztKNeLlRr5ZttYKnk-13" style="edgeStyle=orthogonalEdgeStyle;rounded=0;orthogonalLoop=1;jettySize=auto;html=1;exitX=0;exitY=0.5;exitDx=0;exitDy=0;" edge="1" parent="KnpztKNeLlRr5ZttYKnk-1" source="KnpztKNeLlRr5ZttYKnk-4" target="KnpztKNeLlRr5ZttYKnk-7">
          <mxGeometry relative="1" as="geometry" />
        </mxCell>
        <mxCell id="KnpztKNeLlRr5ZttYKnk-4" value="Secondary" style="rounded=1;whiteSpace=wrap;html=1;" vertex="1" parent="KnpztKNeLlRr5ZttYKnk-1">
          <mxGeometry x="360" y="280" width="80" height="40" as="geometry" />
        </mxCell>
        <mxCell id="KnpztKNeLlRr5ZttYKnk-17" style="edgeStyle=orthogonalEdgeStyle;rounded=0;orthogonalLoop=1;jettySize=auto;html=1;exitX=1;exitY=0.5;exitDx=0;exitDy=0;entryX=0;entryY=0.5;entryDx=0;entryDy=0;" edge="1" parent="KnpztKNeLlRr5ZttYKnk-1" source="KnpztKNeLlRr5ZttYKnk-5" target="KnpztKNeLlRr5ZttYKnk-7">
          <mxGeometry relative="1" as="geometry" />
        </mxCell>
        <mxCell id="KnpztKNeLlRr5ZttYKnk-22" style="edgeStyle=orthogonalEdgeStyle;rounded=0;orthogonalLoop=1;jettySize=auto;html=1;exitX=0.5;exitY=0;exitDx=0;exitDy=0;entryX=0.5;entryY=0;entryDx=0;entryDy=0;" edge="1" parent="KnpztKNeLlRr5ZttYKnk-1" source="KnpztKNeLlRr5ZttYKnk-5" target="KnpztKNeLlRr5ZttYKnk-2">
          <mxGeometry relative="1" as="geometry" />
        </mxCell>
        <mxCell id="KnpztKNeLlRr5ZttYKnk-5" value="Data routing service" style="rounded=1;whiteSpace=wrap;html=1;" vertex="1" parent="KnpztKNeLlRr5ZttYKnk-1">
          <mxGeometry x="40" y="160" width="80" height="40" as="geometry" />
        </mxCell>
        <mxCell id="KnpztKNeLlRr5ZttYKnk-14" style="edgeStyle=orthogonalEdgeStyle;rounded=0;orthogonalLoop=1;jettySize=auto;html=1;exitX=0.5;exitY=0;exitDx=0;exitDy=0;entryX=0;entryY=0.5;entryDx=0;entryDy=0;" edge="1" parent="KnpztKNeLlRr5ZttYKnk-1" source="KnpztKNeLlRr5ZttYKnk-7" target="KnpztKNeLlRr5ZttYKnk-2">
          <mxGeometry relative="1" as="geometry" />
        </mxCell>
        <mxCell id="KnpztKNeLlRr5ZttYKnk-15" style="edgeStyle=orthogonalEdgeStyle;rounded=0;orthogonalLoop=1;jettySize=auto;html=1;exitX=1;exitY=0.5;exitDx=0;exitDy=0;entryX=0;entryY=0.5;entryDx=0;entryDy=0;" edge="1" parent="KnpztKNeLlRr5ZttYKnk-1" source="KnpztKNeLlRr5ZttYKnk-7" target="KnpztKNeLlRr5ZttYKnk-3">
          <mxGeometry relative="1" as="geometry" />
        </mxCell>
        <mxCell id="KnpztKNeLlRr5ZttYKnk-16" style="edgeStyle=orthogonalEdgeStyle;rounded=0;orthogonalLoop=1;jettySize=auto;html=1;exitX=0.5;exitY=1;exitDx=0;exitDy=0;entryX=0;entryY=0.5;entryDx=0;entryDy=0;" edge="1" parent="KnpztKNeLlRr5ZttYKnk-1" source="KnpztKNeLlRr5ZttYKnk-7" target="KnpztKNeLlRr5ZttYKnk-4">
          <mxGeometry relative="1" as="geometry" />
        </mxCell>
        <mxCell id="KnpztKNeLlRr5ZttYKnk-18" style="edgeStyle=orthogonalEdgeStyle;rounded=0;orthogonalLoop=1;jettySize=auto;html=1;exitX=0;exitY=0.5;exitDx=0;exitDy=0;entryX=1;entryY=0.5;entryDx=0;entryDy=0;" edge="1" parent="KnpztKNeLlRr5ZttYKnk-1" source="KnpztKNeLlRr5ZttYKnk-7" target="KnpztKNeLlRr5ZttYKnk-5">
          <mxGeometry relative="1" as="geometry" />
        </mxCell>
        <mxCell id="KnpztKNeLlRr5ZttYKnk-7" value="Placement service" style="rounded=1;whiteSpace=wrap;html=1;" vertex="1" parent="KnpztKNeLlRr5ZttYKnk-1">
          <mxGeometry x="200" y="160" width="80" height="40" as="geometry" />
        </mxCell>
        <mxCell id="KnpztKNeLlRr5ZttYKnk-23" value="Data store" style="text;html=1;align=center;verticalAlign=middle;whiteSpace=wrap;rounded=0;" vertex="1" parent="KnpztKNeLlRr5ZttYKnk-1">
          <mxGeometry y="320" width="120" height="40" as="geometry" />
        </mxCell>
        <mxCell id="KnpztKNeLlRr5ZttYKnk-24" value="Heartbeat" style="text;html=1;align=center;verticalAlign=middle;whiteSpace=wrap;rounded=0;" vertex="1" parent="KnpztKNeLlRr5ZttYKnk-1">
          <mxGeometry x="240" y="300" width="80" height="30" as="geometry" />
        </mxCell>
        <mxCell id="KnpztKNeLlRr5ZttYKnk-26" value="Heartbeat" style="text;html=1;align=center;verticalAlign=middle;whiteSpace=wrap;rounded=0;" vertex="1" parent="KnpztKNeLlRr5ZttYKnk-1">
          <mxGeometry x="280" y="180" width="80" height="30" as="geometry" />
        </mxCell>
        <mxCell id="KnpztKNeLlRr5ZttYKnk-27" value="Heartbeat" style="text;html=1;align=center;verticalAlign=middle;whiteSpace=wrap;rounded=0;" vertex="1" parent="KnpztKNeLlRr5ZttYKnk-1">
          <mxGeometry x="240" y="60" width="80" height="30" as="geometry" />
        </mxCell>
        <mxCell id="KnpztKNeLlRr5ZttYKnk-30" value="Replication" style="text;html=1;align=center;verticalAlign=middle;whiteSpace=wrap;rounded=0;" vertex="1" parent="KnpztKNeLlRr5ZttYKnk-1">
          <mxGeometry x="380" y="240" width="80" height="30" as="geometry" />
        </mxCell>
        <mxCell id="KnpztKNeLlRr5ZttYKnk-31" value="Replication" style="text;html=1;align=center;verticalAlign=middle;whiteSpace=wrap;rounded=0;" vertex="1" parent="KnpztKNeLlRr5ZttYKnk-1">
          <mxGeometry x="320" y="120" width="80" height="30" as="geometry" />
        </mxCell>
        <mxCell id="KnpztKNeLlRr5ZttYKnk-19" style="edgeStyle=orthogonalEdgeStyle;rounded=0;orthogonalLoop=1;jettySize=auto;html=1;exitX=1;exitY=0.5;exitDx=0;exitDy=0;" edge="1" parent="1" source="KnpztKNeLlRr5ZttYKnk-8" target="KnpztKNeLlRr5ZttYKnk-5">
          <mxGeometry relative="1" as="geometry" />
        </mxCell>
        <mxCell id="KnpztKNeLlRr5ZttYKnk-8" value="API service" style="rounded=1;whiteSpace=wrap;html=1;" vertex="1" parent="1">
          <mxGeometry x="80" y="200" width="80" height="40" as="geometry" />
        </mxCell>
        <mxCell id="KnpztKNeLlRr5ZttYKnk-20" style="edgeStyle=orthogonalEdgeStyle;rounded=0;orthogonalLoop=1;jettySize=auto;html=1;exitX=0;exitY=0.5;exitDx=0;exitDy=0;entryX=1;entryY=0.5;entryDx=0;entryDy=0;" edge="1" parent="1" source="KnpztKNeLlRr5ZttYKnk-5" target="KnpztKNeLlRr5ZttYKnk-8">
          <mxGeometry relative="1" as="geometry" />
        </mxCell>
      </root>
    </mxGraphModel>
  </diagram>
</mxfile>
